<svg width="84" height="35" viewBox="0 0 84 35" fill="none" xmlns="http://www.w3.org/2000/svg">
<path d="M9.95947 29.3066V15.2166H14.2914V29.3066H9.95947Z" fill="#246FB0"/>
<path d="M22.4231 15.2168V17.2874C23.3179 15.806 24.7451 15.0652 26.7043 15.0652C28.3257 15.0652 29.6386 15.604 30.6435 16.6814C31.6482 17.7587 32.1508 19.2234 32.1508 21.0751V29.3068H27.8444V21.6559C27.8444 20.7466 27.6037 20.044 27.1225 19.5474C26.6409 19.0511 25.9781 18.8027 25.1338 18.8027C24.2891 18.8027 23.6266 19.0511 23.1452 19.5474C22.6639 20.044 22.4231 20.7466 22.4231 21.6559V29.3068H18.0913V15.2168H22.4231Z" fill="#246FB0"/>
<path d="M42.0057 15.2165V18.8024H40.2072V29.3066H35.8754V18.8024H34.5581V15.2165H35.8754V14.6863C35.8754 12.902 36.3524 11.5972 37.3067 10.7723C38.2606 9.94746 39.7596 9.53491 41.8031 9.53491V13.1963C41.229 13.1963 40.8194 13.306 40.5747 13.5247C40.3295 13.7436 40.2073 14.1309 40.2073 14.6863V15.2165H42.0057Z" fill="#246FB0"/>
<path d="M45.4632 27.4888C44.0361 26.1593 43.3228 24.4082 43.3228 22.2366C43.3228 20.0651 44.0321 18.3271 45.4507 17.0221C46.8691 15.7177 48.6255 15.0652 50.7199 15.0652C52.8139 15.0652 54.5661 15.7177 55.9767 17.0221C57.3867 18.3271 58.0921 20.065 58.0921 22.2366C58.0921 24.4082 57.3909 26.1593 55.9893 27.4888C54.5871 28.8191 52.8392 29.4838 50.745 29.4838C48.6509 29.4838 46.8902 28.8191 45.4632 27.4888ZM52.8223 24.8879C53.3966 24.2821 53.6834 23.407 53.6834 22.2619C53.6834 21.1175 53.3881 20.2461 52.7971 19.6485C52.206 19.0511 51.5049 18.7521 50.6947 18.7521C49.8839 18.7521 49.1875 19.0511 48.6045 19.6485C48.0219 20.246 47.7305 21.1175 47.7305 22.2619C47.7305 23.407 48.0302 24.2821 48.6299 24.8879C49.2294 25.4939 49.9346 25.797 50.7449 25.797C51.556 25.797 52.2481 25.4939 52.8223 24.8879Z" fill="#246FB0"/>
<path d="M63.6762 11.6893C64.0034 11.5144 64.3762 11.427 64.7959 11.427C65.2841 11.427 65.7267 11.547 66.1223 11.7868C66.5174 12.0269 66.8306 12.3681 67.0609 12.8105C67.2912 13.2527 67.4067 13.7652 67.4067 14.3481C67.4067 14.9309 67.2912 15.4471 67.0609 15.8959C66.8306 16.3454 66.5174 16.6932 66.1223 16.9398C65.7267 17.187 65.2841 17.3103 64.7959 17.3103C64.3762 17.3103 64.007 17.2245 63.6871 17.0532C63.3672 16.8819 63.1074 16.6659 62.9078 16.4052V19.9331H61.4629V11.5196H62.9078V12.3423C63.0936 12.0819 63.3497 11.8639 63.6762 11.6893ZM65.7194 13.4583C65.5787 13.2083 65.3929 13.0178 65.162 12.8877C64.9317 12.7572 64.6828 12.6919 64.414 12.6919C64.1531 12.6919 63.9071 12.759 63.6762 12.8928C63.446 13.0264 63.2602 13.2201 63.1194 13.4737C62.9781 13.7274 62.9078 14.0257 62.9078 14.3685C62.9078 14.7118 62.9781 15.0099 63.1194 15.2636C63.2602 15.5173 63.446 15.711 63.6762 15.8448C63.9071 15.9784 64.1531 16.0453 64.414 16.0453C64.6828 16.0453 64.9317 15.9767 65.162 15.8396C65.3929 15.7025 65.5787 15.5072 65.7194 15.2532C65.8607 14.9997 65.9311 14.6979 65.9311 14.3481C65.9311 14.0053 65.8607 13.7089 65.7194 13.4583Z" fill="#246FB0"/>
<path d="M69.9044 9.60645V17.2178H68.4595V9.60645H69.9044Z" fill="#246FB0"/>
<path d="M76.7252 11.5195V17.2177H75.27V16.4977C75.0842 16.7446 74.8419 16.9383 74.5431 17.0789C74.2436 17.2192 73.9183 17.2898 73.5678 17.2898C73.1204 17.2898 72.7248 17.1956 72.3808 17.0066C72.0369 16.8184 71.7669 16.5406 71.5709 16.1738C71.3749 15.8069 71.2769 15.3698 71.2769 14.8623V11.5195H72.7212V14.6567C72.7212 15.1092 72.8348 15.4575 73.0621 15.7007C73.2888 15.9441 73.5984 16.0658 73.9905 16.0658C74.3897 16.0658 74.703 15.9441 74.9297 15.7007C75.157 15.4575 75.27 15.1092 75.27 14.6567V11.5195H76.7252Z" fill="#246FB0"/>
<path d="M79.0775 17.0584C78.7059 16.8902 78.4119 16.6623 78.1954 16.3744C77.9784 16.0866 77.8599 15.7678 77.8389 15.4179H79.294C79.3217 15.6373 79.4299 15.8189 79.6193 15.9628C79.8081 16.1068 80.0438 16.1788 80.3258 16.1788C80.6012 16.1788 80.8159 16.1242 80.971 16.0143C81.1255 15.9048 81.2031 15.764 81.2031 15.5927C81.2031 15.4076 81.1087 15.2686 80.9193 15.1759C80.7305 15.0836 80.4292 14.9825 80.0168 14.8726C79.5898 14.7698 79.2405 14.6636 78.9687 14.5537C78.6969 14.4441 78.4636 14.2762 78.2676 14.0495C78.0716 13.8235 77.9736 13.5184 77.9736 13.1344C77.9736 12.8191 78.0644 12.531 78.2471 12.2704C78.4287 12.0098 78.6903 11.8042 79.0312 11.6532C79.3716 11.5025 79.772 11.427 80.2332 11.427C80.9145 11.427 81.4574 11.5967 81.8639 11.936C82.2692 12.2756 82.4929 12.7332 82.5344 13.3091H81.1514C81.1309 13.0829 81.0365 12.903 80.8676 12.7692C80.6992 12.6355 80.4737 12.5687 80.1917 12.5687C79.9302 12.5687 79.7293 12.6168 79.588 12.7127C79.4473 12.8088 79.3764 12.9426 79.3764 13.1138C79.3764 13.3057 79.4726 13.4516 79.6656 13.5511C79.858 13.6504 80.1575 13.7514 80.5633 13.8543C80.9758 13.9574 81.3167 14.0636 81.5849 14.1733C81.8531 14.2831 82.0852 14.4529 82.2812 14.6824C82.4772 14.9121 82.5789 15.2156 82.5855 15.5927C82.5855 15.9219 82.4947 16.2165 82.3125 16.4771C82.1297 16.7378 81.8687 16.942 81.5284 17.0892C81.1875 17.2366 80.7906 17.3103 80.3366 17.3103C79.8688 17.3103 79.4491 17.2263 79.0775 17.0584Z" fill="#246FB0"/>
<path d="M68.321 23.2141V29.5595H67.0438V25.4324L65.3392 29.5595H64.3723L62.6574 25.4324V29.5595H61.3809V23.2141H62.8312L64.8557 27.9321L66.8803 23.2141H68.321Z" fill="#1BA1C8"/>
<path d="M73.5701 23.6051C74.0776 23.8662 74.4697 24.237 74.7463 24.7184C75.0235 25.2005 75.1618 25.7593 75.1618 26.3961C75.1618 27.0323 75.0235 27.5884 74.7463 28.0637C74.4697 28.54 74.0776 28.9078 73.5701 29.1686C73.0627 29.4291 72.474 29.5595 71.8054 29.5595H69.5806V23.2141H71.8054C72.474 23.2141 73.0627 23.3445 73.5701 23.6051ZM73.3104 27.9321C73.6754 27.5689 73.8576 27.0567 73.8576 26.3962C73.8576 25.7355 73.6754 25.2188 73.3104 24.8458C72.9454 24.4731 72.4283 24.2867 71.7597 24.2867H70.8571V28.4775H71.7597C72.4283 28.4775 72.9454 28.2956 73.3104 27.9321Z" fill="#1BA1C8"/>
<path d="M83.0578 23.2141V29.5595H81.7812V25.4324L80.0754 29.5595H79.1091L77.3948 25.4324V29.5595H76.1177V23.2141H77.5674L79.5925 27.9321L81.6171 23.2141H83.0578Z" fill="#1BA1C8"/>
<path d="M10.647 32.0578C10.7332 32.0146 10.829 31.9927 10.9347 31.9927C11.0594 31.9927 11.1719 32.0224 11.2726 32.0822C11.3731 32.1413 11.4525 32.2261 11.5104 32.336C11.5683 32.4452 11.5974 32.5708 11.5974 32.712C11.5974 32.8527 11.5683 32.9792 11.5104 33.0908C11.4525 33.2019 11.3727 33.2888 11.2712 33.3506C11.1696 33.4128 11.0576 33.4439 10.9347 33.4439C10.8257 33.4439 10.7288 33.4222 10.6444 33.3802C10.5601 33.3375 10.493 33.283 10.4437 33.2168V33.4207H10.1519V31.5337H10.4437V32.2248C10.493 32.1569 10.5609 32.1014 10.647 32.0578ZM11.2407 32.4607C11.2003 32.3903 11.1478 32.3366 11.0819 32.3C11.0163 32.2635 10.9459 32.2452 10.8708 32.2452C10.7974 32.2452 10.7281 32.2638 10.6622 32.3012C10.5968 32.3387 10.5438 32.3933 10.5039 32.4646C10.4635 32.5359 10.4437 32.6203 10.4437 32.7169C10.4437 32.8138 10.4635 32.8985 10.5039 32.9707C10.5438 33.043 10.5968 33.0977 10.6622 33.1353C10.7281 33.1728 10.7975 33.1913 10.8708 33.1913C10.9459 33.1913 11.0163 33.1721 11.0819 33.134C11.1478 33.0959 11.2003 33.0401 11.2407 32.967C11.2805 32.8939 11.3007 32.8086 11.3007 32.7121C11.3007 32.6151 11.2805 32.531 11.2407 32.4607Z" fill="#246FB0"/>
<path d="M14.0511 32.8263H12.9737C12.9823 32.9385 13.0242 33.0286 13.099 33.0969C13.1741 33.1648 13.2663 33.1987 13.3754 33.1987C13.5323 33.1987 13.6433 33.1335 13.708 33.0024H14.0226C13.98 33.1319 13.903 33.2377 13.7911 33.3199C13.6797 33.4024 13.5408 33.4436 13.3754 33.4436C13.2408 33.4436 13.1198 33.4134 13.0133 33.3528C12.9068 33.2928 12.823 33.2078 12.7628 33.0981C12.7021 32.9881 12.6719 32.8613 12.6719 32.7166C12.6719 32.5723 12.7014 32.4449 12.76 32.3358C12.819 32.2258 12.9016 32.1411 13.0081 32.082C13.115 32.0222 13.2372 31.9924 13.3754 31.9924C13.5086 31.9924 13.627 32.0213 13.7311 32.0792C13.8353 32.1372 13.9162 32.2185 13.974 32.323C14.0321 32.4273 14.0612 32.5476 14.0612 32.6837C14.0612 32.7364 14.0579 32.7836 14.0511 32.8263ZM13.7566 32.5917C13.7551 32.4847 13.7167 32.3988 13.6415 32.334C13.5664 32.2696 13.4735 32.2373 13.3627 32.2373C13.2619 32.2373 13.176 32.2693 13.1043 32.3327C13.0326 32.397 12.9898 32.4832 12.9762 32.5917L13.7566 32.5917Z" fill="#246FB0"/>
<path d="M15.5702 32.2528V33.0306C15.5702 33.0834 15.5826 33.1212 15.6074 33.1443C15.6321 33.1676 15.6744 33.1785 15.7341 33.1785H15.913V33.4207H15.6828C15.5516 33.4207 15.451 33.3905 15.381 33.3293C15.311 33.2681 15.276 33.1687 15.276 33.0307V32.2529H15.1099V32.0158H15.276V31.6663H15.5702V32.0158H15.913V32.2529L15.5702 32.2528Z" fill="#246FB0"/>
<path d="M17.4057 32.2528V33.0306C17.4057 33.0834 17.4181 33.1212 17.4429 33.1443C17.4675 33.1676 17.5099 33.1785 17.5695 33.1785H17.7486V33.4207H17.5182C17.387 33.4207 17.2864 33.3905 17.2166 33.3293C17.1464 33.2681 17.1116 33.1687 17.1116 33.0307V32.2529H16.9453V32.0158H17.1116V31.6663H17.4057V32.0158H17.7486V32.2529L17.4057 32.2528Z" fill="#246FB0"/>
<path d="M20.1813 32.8263H19.1042C19.1127 32.9385 19.1544 33.0286 19.2296 33.0969C19.3046 33.1648 19.3968 33.1987 19.5056 33.1987C19.6629 33.1987 19.7735 33.1335 19.8383 33.0024H20.1532C20.1104 33.1319 20.0332 33.2377 19.9214 33.3199C19.8099 33.4024 19.6711 33.4436 19.5056 33.4436C19.3711 33.4436 19.2504 33.4134 19.1438 33.3528C19.0373 33.2928 18.9534 33.2078 18.893 33.0981C18.8327 32.9881 18.8022 32.8613 18.8022 32.7166C18.8022 32.5723 18.8316 32.4449 18.8904 32.3358C18.9493 32.2258 19.0321 32.1411 19.1386 32.082C19.2452 32.0222 19.3676 31.9924 19.5056 31.9924C19.6389 31.9924 19.7573 32.0213 19.8615 32.0792C19.9654 32.1372 20.0466 32.2185 20.1043 32.323C20.1624 32.4273 20.1914 32.5476 20.1914 32.6837C20.1914 32.7364 20.188 32.7836 20.1813 32.8263ZM19.8871 32.5917C19.8854 32.4847 19.8469 32.3988 19.7717 32.334C19.6968 32.2696 19.6038 32.2373 19.4929 32.2373C19.3924 32.2373 19.3062 32.2693 19.2348 32.3327C19.163 32.397 19.1203 32.4832 19.1067 32.5917L19.8871 32.5917Z" fill="#246FB0"/>
<path d="M21.8232 32.0524C21.894 32.0122 21.9778 31.9924 22.0751 31.9924V32.2934H22.0009C21.8868 32.2934 21.8002 32.3227 21.7411 32.3803C21.6826 32.4379 21.653 32.5384 21.653 32.6813V33.4205H21.3613V32.0156H21.653V32.2194C21.6957 32.148 21.7522 32.0923 21.8232 32.0524Z" fill="#246FB0"/>
<path d="M24.7656 32.337C24.8244 32.2281 24.9047 32.1437 25.006 32.0834C25.1075 32.0228 25.2205 31.9927 25.345 31.9927C25.4372 31.9927 25.528 32.0124 25.6175 32.0526C25.7071 32.0925 25.7783 32.1458 25.8312 32.2123V31.5337H26.1254V33.4207H25.8312V33.2093C25.7835 33.2771 25.7173 33.3332 25.6329 33.3774C25.5486 33.4219 25.4516 33.4439 25.3424 33.4439C25.2198 33.4439 25.1075 33.4128 25.006 33.3506C24.9047 33.2888 24.8244 33.2019 24.7656 33.0908C24.7067 32.9792 24.6772 32.8527 24.6772 32.712C24.6772 32.5709 24.7067 32.446 24.7656 32.337ZM25.7711 32.4646C25.7309 32.3933 25.6786 32.3387 25.6136 32.3012C25.5489 32.2638 25.4788 32.2452 25.4038 32.2452C25.3289 32.2452 25.2588 32.2635 25.1939 32.3C25.1292 32.3366 25.0769 32.3903 25.0367 32.4607C24.9968 32.531 24.9766 32.6151 24.9766 32.7121C24.9766 32.8086 24.9968 32.894 25.0367 32.967C25.0769 33.0401 25.1296 33.096 25.1953 33.134C25.2609 33.1721 25.3304 33.1913 25.4038 33.1913C25.4788 33.1913 25.5488 33.1728 25.6136 33.1353C25.6786 33.0977 25.7308 33.043 25.7711 32.9707C25.811 32.8985 25.8311 32.8138 25.8311 32.7169C25.8311 32.6203 25.811 32.5359 25.7711 32.4646Z" fill="#246FB0"/>
<path d="M27.3837 32.3367C27.4425 32.2279 27.5227 32.1434 27.6242 32.0832C27.7255 32.0226 27.8379 31.9924 27.9604 31.9924C28.0714 31.9924 28.1683 32.0143 28.251 32.0576C28.3337 32.1012 28.3997 32.1547 28.4492 32.2194V32.0155H28.7437V33.4205H28.4492V33.2114C28.3997 33.2778 28.3323 33.333 28.2472 33.3772C28.1621 33.4217 28.0647 33.4436 27.9556 33.4436C27.8345 33.4436 27.7235 33.4125 27.6229 33.3504C27.522 33.2886 27.4425 33.2017 27.3836 33.0905C27.3248 32.9789 27.2954 32.8525 27.2954 32.7117C27.2955 32.5706 27.3248 32.4457 27.3837 32.3367ZM28.3892 32.4644C28.3491 32.3931 28.2967 32.3384 28.2317 32.301C28.1669 32.2635 28.0969 32.245 28.0218 32.245C27.947 32.245 27.8771 32.2632 27.812 32.2998C27.7475 32.3363 27.6949 32.39 27.6549 32.4604C27.6148 32.5308 27.5947 32.6149 27.5947 32.7118C27.5947 32.8084 27.6148 32.8937 27.6549 32.9668C27.6949 33.0399 27.7478 33.0958 27.8135 33.1338C27.8791 33.1719 27.9485 33.1911 28.0218 33.1911C28.0969 33.1911 28.1669 33.1725 28.2317 33.135C28.2967 33.0976 28.3491 33.0427 28.3892 32.9704C28.4293 32.8983 28.4492 32.8135 28.4492 32.7166C28.4492 32.6201 28.4293 32.5356 28.3892 32.4644Z" fill="#246FB0"/>
<path d="M30.3488 32.2528V33.0306C30.3488 33.0834 30.361 33.1212 30.3859 33.1443C30.4105 33.1676 30.4528 33.1785 30.5125 33.1785H30.6915V33.4207H30.4613C30.3299 33.4207 30.2293 33.3905 30.1594 33.3293C30.0895 33.2681 30.0545 33.1687 30.0545 33.0307V32.2529H29.8882V32.0158H30.0545V31.6663H30.3488V32.0158H30.6915V32.2529L30.3488 32.2528Z" fill="#246FB0"/>
<path d="M31.8347 32.3367C31.8935 32.2279 31.9735 32.1434 32.0752 32.0832C32.1766 32.0226 32.2886 31.9924 32.4116 31.9924C32.5225 31.9924 32.6194 32.0143 32.7019 32.0576C32.7846 32.1012 32.8508 32.1547 32.9003 32.2194V32.0155H33.1946V33.4205H32.9003V33.2114C32.8508 33.2778 32.7833 33.333 32.6982 33.3772C32.613 33.4217 32.5156 33.4436 32.4063 33.4436C32.2854 33.4436 32.1746 33.4125 32.0737 33.3504C31.973 33.2886 31.8935 33.2017 31.8347 33.0905C31.7758 32.9789 31.7466 32.8525 31.7466 32.7117C31.7466 32.5706 31.7759 32.4457 31.8347 32.3367ZM32.8401 32.4644C32.8002 32.3931 32.7475 32.3384 32.6828 32.301C32.6179 32.2635 32.548 32.245 32.4729 32.245C32.3979 32.245 32.328 32.2632 32.2631 32.2998C32.1985 32.3363 32.1458 32.39 32.106 32.4604C32.0656 32.5308 32.0456 32.6149 32.0456 32.7118C32.0456 32.8084 32.0656 32.8937 32.106 32.9668C32.1458 33.0399 32.1989 33.0958 32.2645 33.1338C32.3302 33.1719 32.3996 33.1911 32.4729 33.1911C32.548 33.1911 32.6178 33.1725 32.6828 33.135C32.7474 33.0976 32.8002 33.0427 32.84 32.9704C32.8802 32.8983 32.9003 32.8135 32.9003 32.7166C32.9003 32.6201 32.8803 32.5356 32.8401 32.4644Z" fill="#246FB0"/>
<path d="M34.78 33.0715L34.4703 33.7754H34.2808L34.4628 33.0715H34.78Z" fill="#246FB0"/>
<path d="M37.9616 32.0578C38.0476 32.0146 38.1436 31.9927 38.2492 31.9927C38.3738 31.9927 38.4863 32.0224 38.5872 32.0822C38.6877 32.1413 38.7671 32.2261 38.825 32.336C38.8828 32.4452 38.9119 32.5708 38.9119 32.712C38.9119 32.8527 38.8828 32.9792 38.825 33.0908C38.7671 33.2019 38.6872 33.2888 38.5856 33.3506C38.4844 33.4128 38.3722 33.4439 38.2492 33.4439C38.14 33.4439 38.0434 33.4222 37.9589 33.3802C37.8745 33.3375 37.8077 33.283 37.7582 33.2168V33.4207H37.4663V31.5337H37.7582V32.2248C37.8077 32.1569 37.8754 32.1014 37.9616 32.0578ZM38.555 32.4607C38.515 32.3903 38.4621 32.3366 38.3964 32.3C38.3307 32.2635 38.2604 32.2452 38.1855 32.2452C38.112 32.2452 38.0424 32.2638 37.9767 32.3012C37.911 32.3387 37.8582 32.3933 37.8182 32.4646C37.7781 32.5359 37.7582 32.6203 37.7582 32.7169C37.7582 32.8138 37.7781 32.8985 37.8182 32.9707C37.8583 33.043 37.911 33.0977 37.9767 33.1353C38.0424 33.1728 38.112 33.1913 38.1855 33.1913C38.2604 33.1913 38.3307 33.1721 38.3964 33.134C38.4621 33.0959 38.515 33.0401 38.555 32.967C38.5951 32.8939 38.6151 32.8086 38.6151 32.7121C38.6151 32.6151 38.5951 32.531 38.555 32.4607Z" fill="#246FB0"/>
<path d="M41.3673 32.8263H40.2901C40.2987 32.9385 40.3405 33.0286 40.4157 33.0969C40.4905 33.1648 40.5825 33.1987 40.692 33.1987C40.8489 33.1987 40.9596 33.1335 41.0246 33.0024H41.3393C41.2966 33.1319 41.2193 33.2377 41.1076 33.3199C40.9958 33.4024 40.8574 33.4436 40.692 33.4436C40.557 33.4436 40.4366 33.4134 40.3297 33.3528C40.2231 33.2928 40.1397 33.2078 40.0791 33.0981C40.0184 32.9881 39.9883 32.8613 39.9883 32.7166C39.9883 32.5723 40.0177 32.4449 40.0766 32.3358C40.1354 32.2258 40.2182 32.1411 40.3248 32.082C40.4314 32.0222 40.5538 31.9924 40.692 31.9924C40.8249 31.9924 40.9435 32.0213 41.0475 32.0792C41.1514 32.1372 41.2324 32.2185 41.2907 32.323C41.3485 32.4273 41.3776 32.5476 41.3776 32.6837C41.3777 32.7364 41.3741 32.7836 41.3673 32.8263ZM41.0732 32.5917C41.0713 32.4847 41.0331 32.3988 40.9579 32.334C40.8831 32.2696 40.7901 32.2373 40.6792 32.2373C40.5786 32.2373 40.4924 32.2693 40.4206 32.3327C40.3492 32.397 40.3065 32.4832 40.2928 32.5917L41.0732 32.5917Z" fill="#246FB0"/>
<path d="M42.8854 32.2528V33.0306C42.8854 33.0834 42.8978 33.1212 42.9226 33.1443C42.9471 33.1676 42.9894 33.1785 43.0491 33.1785H43.2283V33.4207H42.9981C42.8665 33.4207 42.7659 33.3905 42.696 33.3293C42.6263 33.2681 42.5912 33.1687 42.5912 33.0307V32.2529H42.4248V32.0158H42.5912V31.6663H42.8854V32.0158H43.2283V32.2529L42.8854 32.2528Z" fill="#246FB0"/>
<path d="M44.7207 32.2528V33.0306C44.7207 33.0834 44.733 33.1212 44.7579 33.1443C44.7825 33.1676 44.8246 33.1785 44.8844 33.1785H45.0635V33.4207H44.8333C44.7021 33.4207 44.6012 33.3905 44.5311 33.3293C44.4615 33.2681 44.4263 33.1687 44.4263 33.0307V32.2529H44.2603V32.0158H44.4263V31.6663H44.7207V32.0158H45.0635V32.2529L44.7207 32.2528Z" fill="#246FB0"/>
<path d="M47.4968 32.8263H46.4196C46.4281 32.9385 46.4699 33.0286 46.545 33.0969C46.62 33.1648 46.7122 33.1987 46.8215 33.1987C46.9782 33.1987 47.0891 33.1335 47.1541 33.0024H47.4687C47.426 33.1319 47.3488 33.2377 47.2372 33.3199C47.1254 33.4024 46.9868 33.4436 46.8215 33.4436C46.6867 33.4436 46.5661 33.4134 46.4594 33.3528C46.3527 33.2928 46.2691 33.2078 46.2086 33.0981C46.1481 32.9881 46.1177 32.8613 46.1177 32.7166C46.1177 32.5723 46.1472 32.4449 46.206 32.3358C46.2649 32.2258 46.3475 32.1411 46.4542 32.082C46.5609 32.0222 46.6832 31.9924 46.8215 31.9924C46.9544 31.9924 47.0731 32.0213 47.177 32.0792C47.2811 32.1372 47.3621 32.2185 47.4201 32.323C47.4781 32.4273 47.5073 32.5476 47.5073 32.6837C47.5072 32.7364 47.5037 32.7836 47.4968 32.8263ZM47.2026 32.5917C47.2008 32.4847 47.1625 32.3988 47.0875 32.334C47.0123 32.2696 46.9196 32.2373 46.8086 32.2373C46.7078 32.2373 46.622 32.2693 46.5502 32.3327C46.4785 32.397 46.4359 32.4832 46.4222 32.5917L47.2026 32.5917Z" fill="#246FB0"/>
<path d="M49.1375 32.0524C49.2081 32.0122 49.2923 31.9924 49.3896 31.9924V32.2934H49.3154C49.201 32.2934 49.1144 32.3227 49.0557 32.3803C48.9968 32.4379 48.9675 32.5384 48.9675 32.6813V33.4205H48.6758V32.0156H48.9675V32.2194C49.0099 32.148 49.0669 32.0923 49.1375 32.0524Z" fill="#246FB0"/>
<path d="M53.3711 32.8263H52.2941C52.3026 32.9385 52.3441 33.0286 52.4192 33.0969C52.4944 33.1648 52.5864 33.1987 52.6958 33.1987C52.8527 33.1987 52.9634 33.1335 53.0283 33.0024H53.3428C53.3001 33.1319 53.2231 33.2377 53.1113 33.3199C53.0001 33.4024 52.8612 33.4436 52.6958 33.4436C52.5611 33.4436 52.4403 33.4134 52.3338 33.3528C52.2268 33.2928 52.1432 33.2078 52.0831 33.0981C52.0224 32.9881 51.9917 32.8613 51.9917 32.7166C51.9917 32.5723 52.0212 32.4449 52.0801 32.3358C52.1396 32.2258 52.222 32.1411 52.3284 32.082C52.4349 32.0222 52.5575 31.9924 52.6958 31.9924C52.8287 31.9924 52.9472 32.0213 53.0512 32.0792C53.1552 32.1372 53.2364 32.2185 53.2941 32.323C53.3524 32.4273 53.3813 32.5476 53.3813 32.6837C53.3813 32.7364 53.3783 32.7836 53.3711 32.8263ZM53.077 32.5917C53.0752 32.4847 53.0367 32.3988 52.9622 32.334C52.8864 32.2696 52.7932 32.2373 52.6832 32.2373C52.5822 32.2373 52.4962 32.2693 52.4246 32.3327C52.3525 32.397 52.3098 32.4832 52.2966 32.5917L53.077 32.5917Z" fill="#246FB0"/>
<path d="M55.0126 32.0524C55.0829 32.0122 55.1671 31.9924 55.2645 31.9924V32.2934H55.19C55.0757 32.2934 54.9897 32.3227 54.9302 32.3803C54.8719 32.4379 54.8424 32.5384 54.8424 32.6813V33.4205H54.5508V32.0156H54.8424V32.2194C54.8851 32.148 54.9416 32.0923 55.0126 32.0524Z" fill="#246FB0"/>
<path d="M56.9092 32.0588C56.9952 32.0143 57.0908 31.9924 57.199 31.9924C57.3217 31.9924 57.4335 32.0226 57.5351 32.0832C57.6362 32.1434 57.7161 32.2279 57.7744 32.3367C57.8322 32.4457 57.861 32.5706 57.861 32.7117C57.861 32.8525 57.8322 32.9789 57.7744 33.0905C57.7161 33.2017 57.6362 33.2886 57.5351 33.3504C57.4335 33.4125 57.3217 33.4436 57.199 33.4436C57.0908 33.4436 56.9958 33.422 56.9116 33.3787C56.8286 33.3355 56.7601 33.2813 56.7072 33.2166V34.0889H56.4155V32.0155H56.7072V32.2218C56.7565 32.1575 56.8244 32.103 56.9092 32.0588ZM57.5045 32.4604C57.4642 32.3901 57.4113 32.3363 57.3457 32.2998C57.2802 32.2632 57.2092 32.245 57.1347 32.245C57.0607 32.245 56.9916 32.2635 56.926 32.301C56.8605 32.3384 56.8076 32.3931 56.7673 32.4644C56.7276 32.5356 56.7072 32.6201 56.7072 32.7166C56.7072 32.8135 56.7276 32.8983 56.7673 32.9704C56.8076 33.0427 56.8605 33.0976 56.926 33.135C56.9916 33.1725 57.0607 33.1911 57.1347 33.1911C57.2092 33.1911 57.2802 33.1719 57.3457 33.1338C57.4113 33.0957 57.4642 33.0399 57.5045 32.9668C57.5442 32.8937 57.5646 32.8084 57.5646 32.7118C57.5646 32.6149 57.5442 32.5308 57.5045 32.4604Z" fill="#246FB0"/>
<g opacity="0.8">
<path d="M8.41016 6.90569C8.4137 9.75258 9.88152 12.261 12.1046 13.7181C14.3294 12.2611 15.799 9.75642 15.8011 6.90659C15.799 4.05552 14.3294 1.54743 12.1046 0.0891113C9.88158 1.54743 8.41016 4.05465 8.41016 6.90569Z" fill="url(#paint0_linear_343_2323)"/>
<path opacity="0.5" d="M12.0444 13.7208C9.86434 12.2557 8.4255 9.7765 8.42334 6.95664C8.42334 4.1365 9.86434 1.6611 12.0485 0.195068L12.0444 13.7208Z" fill="url(#paint1_linear_343_2323)"/>
</g>
<path d="M15.8163 6.25998C13.303 8.0144 11.9978 10.8423 12.083 13.6873C14.7359 14.7372 17.8477 14.4844 20.3608 12.7317C22.8724 10.9755 24.1756 8.14668 24.0942 5.30243C21.4415 4.2517 18.3298 4.50539 15.8163 6.25998Z" fill="url(#paint2_linear_343_2323)"/>
<path opacity="0.5" d="M24.0044 5.27318C21.3689 4.2638 18.2978 4.52538 15.8155 6.2607C13.3331 7.99378 12.0337 10.7791 12.086 13.5953L24.0044 5.27318Z" fill="url(#paint3_linear_343_2323)"/>
<path d="M11.6866 5.42791C10.3932 8.19688 10.6838 11.2965 12.1806 13.7179C15.0058 13.305 17.5731 11.5369 18.8686 8.76448C20.1641 5.99443 19.8757 2.89344 18.3768 0.472168C15.5518 0.884373 12.984 2.65603 11.6866 5.42791Z" fill="url(#paint4_linear_343_2323)"/>
<path opacity="0.5" d="M18.2824 0.491455C15.4981 0.929757 12.9693 2.68801 11.6873 5.42787C10.4074 8.16861 10.6805 11.2252 12.1365 13.6332L18.2824 0.491455Z" fill="url(#paint5_linear_343_2323)"/>
<g opacity="0.8">
<path d="M5.39162 8.76448C6.68872 11.533 9.25636 13.305 12.0816 13.7179C13.5803 11.2984 13.8667 8.19856 12.5734 5.42791C11.2762 2.65527 8.70846 0.884373 5.88323 0.472168C4.38637 2.8934 4.09595 5.99443 5.39162 8.76448Z" fill="url(#paint6_linear_343_2323)"/>
<path opacity="0.5" d="M5.83953 0.55542C4.3835 2.96502 4.1122 6.02432 5.39223 8.76446C6.67593 11.5068 9.20112 13.2626 11.9891 13.6986L5.83953 0.55542Z" fill="url(#paint7_linear_343_2323)"/>
</g>
<g opacity="0.8">
<path d="M3.7987 12.7297C6.30808 14.4803 9.42175 14.7372 12.0747 13.6872C12.156 10.8401 10.8546 8.01359 8.34129 6.25887C5.8277 4.50633 2.71427 4.25164 0.0611913 5.30168C-0.0199832 8.14659 1.28326 10.9772 3.7987 12.7297Z" fill="url(#paint8_linear_343_2323)"/>
<path opacity="0.5" d="M0.0649962 5.39722C0.0126837 8.20952 1.31208 10.9928 3.79848 12.7299C6.28068 14.4632 9.34997 14.7258 11.9854 13.7161L0.0649962 5.39722Z" fill="#0B0A0A"/>
</g>
<defs>
<linearGradient id="paint0_linear_343_2323" x1="9.63493" y1="-0.270223" x2="16.6154" y2="20.1295" gradientUnits="userSpaceOnUse">
<stop stop-color="#F6AF85"/>
<stop offset="0.3075" stop-color="#F8676F"/>
<stop offset="0.7785" stop-color="#F30F6B"/>
<stop offset="0.9054" stop-color="#F3106C"/>
<stop offset="0.9816" stop-color="#F31171"/>
<stop offset="1" stop-color="#F31173"/>
</linearGradient>
<linearGradient id="paint1_linear_343_2323" x1="5.29247" y1="7.12344" x2="13.6004" y2="6.91853" gradientUnits="userSpaceOnUse">
<stop stop-color="#F6AF85"/>
<stop offset="0.3075" stop-color="#F8676F"/>
<stop offset="0.7785" stop-color="#F30F6B"/>
<stop offset="0.9054" stop-color="#F3106C"/>
<stop offset="0.9816" stop-color="#F31171"/>
<stop offset="1" stop-color="#F31173"/>
</linearGradient>
<linearGradient id="paint2_linear_343_2323" x1="24.0856" y1="1.28151" x2="10.4951" y2="20.0123" gradientUnits="userSpaceOnUse">
<stop stop-color="#77C022"/>
<stop offset="0.3075" stop-color="#77C022"/>
<stop offset="0.7785" stop-color="#14712F"/>
<stop offset="0.9695" stop-color="#14712F"/>
<stop offset="1" stop-color="#14712F"/>
</linearGradient>
<linearGradient id="paint3_linear_343_2323" x1="14.0352" y1="3.41663" x2="18.9451" y2="10.832" gradientUnits="userSpaceOnUse">
<stop stop-color="#F6CF11"/>
<stop offset="0.3075" stop-color="#BC9312"/>
<stop offset="0.7785" stop-color="#301909"/>
<stop offset="0.9885" stop-color="#311A09"/>
<stop offset="1" stop-color="#321A09"/>
</linearGradient>
<linearGradient id="paint4_linear_343_2323" x1="16.353" y1="-3.00548" x2="13.9235" y2="19.9806" gradientUnits="userSpaceOnUse">
<stop stop-color="#47A1CA"/>
<stop offset="0.3075" stop-color="#47A1CA"/>
<stop offset="1" stop-color="#2172A6"/>
</linearGradient>
<linearGradient id="paint5_linear_343_2323" x1="8.72168" y1="3.85106" x2="16.6904" y2="7.82074" gradientUnits="userSpaceOnUse">
<stop stop-color="#44B9D5"/>
<stop offset="0.3075" stop-color="#13A5C6"/>
<stop offset="0.7785" stop-color="#13317B"/>
<stop offset="0.9308" stop-color="#13317D"/>
<stop offset="1" stop-color="#133282"/>
</linearGradient>
<linearGradient id="paint6_linear_343_2323" x1="1.91031" y1="-0.21893" x2="17.9501" y2="16.4756" gradientUnits="userSpaceOnUse">
<stop stop-color="#22A38E"/>
<stop offset="0.3075" stop-color="#1BA087"/>
<stop offset="0.7785" stop-color="#0D302C"/>
<stop offset="0.8965" stop-color="#0D302D"/>
<stop offset="0.9674" stop-color="#0D3130"/>
<stop offset="1" stop-color="#0D3233"/>
</linearGradient>
<linearGradient id="paint7_linear_343_2323" x1="2.27417" y1="10.0175" x2="10.4319" y2="6.4436" gradientUnits="userSpaceOnUse">
<stop stop-color="#22A38E"/>
<stop offset="0.3075" stop-color="#1BA087"/>
<stop offset="0.7785" stop-color="#0D302C"/>
<stop offset="0.8965" stop-color="#0D302D"/>
<stop offset="0.9674" stop-color="#0D3130"/>
<stop offset="1" stop-color="#0D3233"/>
</linearGradient>
<linearGradient id="paint8_linear_343_2323" x1="-3.72688" y1="6.68364" x2="18.5515" y2="13.1161" gradientUnits="userSpaceOnUse">
<stop stop-color="#2CAFCE"/>
<stop offset="0.3075" stop-color="#2CAFCE"/>
<stop offset="0.7785" stop-color="#196F7C"/>
<stop offset="0.9695" stop-color="#196F7C"/>
<stop offset="1" stop-color="#196F7C"/>
</linearGradient>
</defs>
</svg>
